<svg xmlns="http://www.w3.org/2000/svg" xmlns:xlink="http://www.w3.org/1999/xlink" contentStyleType="text/css" data-diagram-type="DESCRIPTION" height="688px" preserveAspectRatio="none" style="width:878px;height:688px;background:#FEFEFE;" version="1.1" viewBox="0 0 878 688" width="878px" zoomAndPan="magnify"><defs/><g><rect fill="#FEFEFE" height="688" style="stroke:none;stroke-width:1;" width="878" x="0" y="0"/><!--cluster Layer4--><g class="cluster" data-entity="Layer4" data-source-line="4" data-uid="ent0002" id="cluster_Layer4"><rect fill="none" height="106" rx="2.5" ry="2.5" style="stroke:#181818;stroke-width:1;" width="482" x="269" y="7"/><text fill="#000000" font-family="sans-serif" font-size="14" font-weight="bold" lengthAdjust="spacing" textLength="43.3125" x="488.3438" y="23.5332">&#19994;&#21153;&#23618;</text></g><!--cluster Layer3--><g class="cluster" data-entity="Layer3" data-source-line="11" data-uid="ent0007" id="cluster_Layer3"><rect fill="none" height="106" rx="2.5" ry="2.5" style="stroke:#181818;stroke-width:1;" width="438" x="269" y="179"/><text fill="#000000" font-family="sans-serif" font-size="14" font-weight="bold" lengthAdjust="spacing" textLength="43.3125" x="466.3438" y="195.5332">&#21152;&#23494;&#23618;</text></g><!--cluster Layer2--><g class="cluster" data-entity="Layer2" data-source-line="18" data-uid="ent0012" id="cluster_Layer2"><rect fill="none" height="106" rx="2.5" ry="2.5" style="stroke:#181818;stroke-width:1;" width="378" x="269" y="334"/><text fill="#000000" font-family="sans-serif" font-size="14" font-weight="bold" lengthAdjust="spacing" textLength="43.3125" x="436.3438" y="350.5332">&#32534;&#30721;&#23618;</text></g><!--cluster Layer1--><g class="cluster" data-entity="Layer1" data-source-line="25" data-uid="ent0017" id="cluster_Layer1"><rect fill="none" height="111" rx="2.5" ry="2.5" style="stroke:#181818;stroke-width:1;" width="603" x="269" y="489"/><text fill="#000000" font-family="sans-serif" font-size="14" font-weight="bold" lengthAdjust="spacing" textLength="43.3125" x="548.8438" y="505.5332">&#20256;&#36755;&#23618;</text></g><!--entity Task--><g class="entity" data-entity="Task" data-source-line="5" data-uid="ent0003" id="entity_Task"><rect fill="#F1F1F1" height="37.6094" rx="2.5" ry="2.5" style="stroke:#181818;stroke-width:0.5;" width="150.71" x="312.5" y="51"/><text fill="#000000" font-family="sans-serif" font-size="14" lengthAdjust="spacing" textLength="130.71" x="322.5" y="75.5332">TaskReq / TaskResp</text></g><g class="entity" data-entity="GMN4" data-source-line="7" data-uid="ent0005" id="entity_GMN4"><path d="M499,57 L499,66 L463.59,70 L499,74 L499,83.3516 A0,0 0 0 0 499,83.3516 L726.959,83.3516 A0,0 0 0 0 726.959,83.3516 L726.959,67 L716.959,57 L499,57 A0,0 0 0 0 499,57" fill="#FEFFDD" style="stroke:#181818;stroke-width:0.5;"/><path d="M716.959,57 L716.959,67 L726.959,67 L716.959,57" fill="#FEFFDD" style="stroke:#181818;stroke-width:0.5;"/><text fill="#000000" font-family="sans-serif" font-size="13" lengthAdjust="spacing" textLength="206.959" x="505" y="75.4951">JSON &#24207;&#21015;&#21270;&#65292;TaskType + Params</text></g><!--entity Encryption--><g class="entity" data-entity="Encryption" data-source-line="12" data-uid="ent0008" id="entity_Encryption"><rect fill="#F1F1F1" height="37.6094" rx="2.5" ry="2.5" style="stroke:#181818;stroke-width:0.5;" width="161.1826" x="312.5" y="223"/><text fill="#000000" font-family="sans-serif" font-size="14" lengthAdjust="spacing" textLength="141.1826" x="322.5" y="247.5332">AES-GCM &#21152;&#23494; + &#35748;&#35777;</text></g><g class="entity" data-entity="GMN9" data-source-line="14" data-uid="ent0010" id="entity_GMN9"><path d="M509,229 L509,238 L473.88,242 L509,246 L509,255.3516 A0,0 0 0 0 509,255.3516 L683.207,255.3516 A0,0 0 0 0 683.207,255.3516 L683.207,239 L673.207,229 L509,229 A0,0 0 0 0 509,229" fill="#FEFFDD" style="stroke:#181818;stroke-width:0.5;"/><path d="M673.207,229 L673.207,239 L683.207,239 L673.207,229" fill="#FEFFDD" style="stroke:#181818;stroke-width:0.5;"/><text fill="#000000" font-family="sans-serif" font-size="13" lengthAdjust="spacing" textLength="153.207" x="515" y="247.4951">256-bit key, 12-byte nonce</text></g><!--entity Encoding--><g class="entity" data-entity="Encoding" data-source-line="19" data-uid="ent0013" id="entity_Encoding"><rect fill="#F1F1F1" height="37.6094" rx="2.5" ry="2.5" style="stroke:#181818;stroke-width:0.5;" width="162.3926" x="312" y="378"/><text fill="#000000" font-family="sans-serif" font-size="14" lengthAdjust="spacing" textLength="142.3926" x="322" y="402.5332">Base64 URL-safe &#32534;&#30721;</text></g><g class="entity" data-entity="GMN14" data-source-line="21" data-uid="ent0015" id="entity_GMN14"><path d="M509.5,384 L509.5,393 L474.09,397 L509.5,401 L509.5,410.3516 A0,0 0 0 0 509.5,410.3516 L622.9917,410.3516 A0,0 0 0 0 622.9917,410.3516 L622.9917,394 L612.9917,384 L509.5,384 A0,0 0 0 0 509.5,384" fill="#FEFFDD" style="stroke:#181818;stroke-width:0.5;"/><path d="M612.9917,384 L612.9917,394 L622.9917,394 L612.9917,384" fill="#FEFFDD" style="stroke:#181818;stroke-width:0.5;"/><text fill="#000000" font-family="sans-serif" font-size="13" lengthAdjust="spacing" textLength="92.4917" x="515.5" y="402.4951">&#26080; padding &#23383;&#31526;</text></g><!--entity Transport--><g class="entity" data-entity="Transport" data-source-line="26" data-uid="ent0018" id="entity_Transport"><rect fill="#F1F1F1" height="37.6094" rx="2.5" ry="2.5" style="stroke:#181818;stroke-width:0.5;" width="192.7168" x="312.5" y="535.5"/><text fill="#000000" font-family="sans-serif" font-size="14" lengthAdjust="spacing" textLength="172.7168" x="322.5" y="560.0332">HTTP GET /api/v1/analytics</text></g><g class="entity" data-entity="GMN19" data-source-line="28" data-uid="ent0020" id="entity_GMN19"><path d="M540.5,533 L540.5,550.5 L505.58,554.5 L540.5,558.5 L540.5,575.7031 A0,0 0 0 0 540.5,575.7031 L847.2017,575.7031 A0,0 0 0 0 847.2017,575.7031 L847.2017,543 L837.2017,533 L540.5,533 A0,0 0 0 0 540.5,533" fill="#FEFFDD" style="stroke:#181818;stroke-width:0.5;"/><path d="M837.2017,533 L837.2017,543 L847.2017,543 L837.2017,533" fill="#FEFFDD" style="stroke:#181818;stroke-width:0.5;"/><text fill="#000000" font-family="sans-serif" font-size="13" lengthAdjust="spacing" textLength="192.2642" x="546.5" y="551.4951">?id=&lt;base64&gt;&amp;sid=&lt;session_id&gt;</text><text fill="#000000" font-family="sans-serif" font-size="13" lengthAdjust="spacing" textLength="285.7017" x="546.5" y="567.8467">Headers: &#23436;&#25972;&#27983;&#35272;&#22120;&#20266;&#35013; (Chrome UA + Referer)</text></g><g class="entity" data-entity="GMN25" data-source-line="38" data-uid="ent0026" id="entity_GMN25"><path d="M6,655 L6,681.3516 L547.5396,681.3516 L547.5396,665 L537.5396,655 L6,655" fill="#FEFFDD" style="stroke:#181818;stroke-width:0.5;"/><path d="M537.5396,655 L537.5396,665 L547.5396,665 L537.5396,655" fill="#FEFFDD" style="stroke:#181818;stroke-width:1;"/><text fill="#000000" font-family="sans-serif" font-size="13" lengthAdjust="spacing" textLength="520.5396" x="12" y="673.4951">&#25968;&#25454;&#27969;&#21521;&#65306;TaskReq &#8594; JSON &#8594; AES-GCM&#21152;&#23494; &#8594; Base64&#32534;&#30721; &#8594; HTTP GET &#21442;&#25968; &#8594; &#21457;&#36865;</text></g><!--link Layer4 to Layer3--><g class="link" data-entity-1="Layer4" data-entity-2="Layer3" data-source-line="33" data-uid="lnk22" id="link_Layer4_Layer3"><path d="M277,113.4209 C277,113.9865 277,114.5554 277,115.1276 C277,116.272 277,117.4294 277,118.5985 C277,120.9368 277,123.3223 277,125.7454 C277,135.4381 277,145.7344 277,156.03 C277,161.1778 277,166.3255 277,171.3974 C277,173.9334 277,170.4505 277,172.9392" fill="none" id="Layer4-to-Layer3" style="stroke:#181818;stroke-width:1;"/><polygon fill="#181818" points="277,178.9392,281,169.9392,277,173.9392,273,169.9392,277,178.9392" style="stroke:#181818;stroke-width:1;"/><text fill="#000000" font-family="sans-serif" font-size="13" lengthAdjust="spacing" textLength="52.019" x="278" y="151.4951">TaskReq</text></g><!--link Layer3 to Layer2--><g class="link" data-entity-1="Layer3" data-entity-2="Layer2" data-source-line="34" data-uid="lnk23" id="link_Layer3_Layer2"><path d="M277,285.0513 C277,285.313 277,285.5754 277,285.8385 C277,287.9429 277,290.0898 277,292.2706 C277,300.9938 277,310.2603 277,319.5263 C277,324.1592 277,328.7921 277,333.3568 C277,333.4994 277,327.642 277,327.7845" fill="none" id="Layer3-to-Layer2" style="stroke:#181818;stroke-width:1;"/><polygon fill="#181818" points="277,333.7845,281,324.7845,277,328.7845,273,324.7845,277,333.7845" style="stroke:#181818;stroke-width:1;"/></g><!--link Layer2 to Layer1--><g class="link" data-entity-1="Layer2" data-entity-2="Layer1" data-source-line="35" data-uid="lnk24" id="link_Layer2_Layer1"><path d="M277,440.7408 C277,441.0068 277,441.2735 277,441.5409 C277,443.6797 277,445.8618 277,448.0783 C277,456.9444 277,466.3625 277,475.78 C277,478.1344 277,480.4887 277,482.8344 C277,484.0072 277,485.1779 277,486.3453 C277,486.929 277,487.5119 277,488.0938 C277,488.3848 277,482.6755 277,482.966" fill="none" id="Layer2-to-Layer1" style="stroke:#181818;stroke-width:1;"/><polygon fill="#181818" points="277,488.966,281,479.966,277,483.966,273,479.966,277,488.966" style="stroke:#181818;stroke-width:1;"/></g><!--link Layer1 to GMN25--><g class="link" data-entity-1="Layer1" data-entity-2="GMN25" data-source-line="38" data-uid="lnk27" id="link_Layer1_GMN25"><path d="M277,600.1698 C277,600.3368 277,600.5039 277,600.6711 C277,601.0056 277,601.3406 277,601.6761 C277,602.347 277,603.0198 277,603.6942 C277,606.3916 277,609.113 277,611.8325 C277,617.2716 277,622.7033 277,627.9203 C277,638.3544 277,647.93 277,654.99" fill="none" id="Layer1-GMN25" style="stroke:#181818;stroke-width:1;stroke-dasharray:7.0,7.0;"/></g></g></svg>