<svg xmlns="http://www.w3.org/2000/svg" xmlns:xlink="http://www.w3.org/1999/xlink" contentStyleType="text/css" data-diagram-type="DESCRIPTION" height="1087px" preserveAspectRatio="none" style="width:1337px;height:1087px;background:#FFFFFF;" version="1.1" viewBox="0 0 1337 1087" width="1337px" zoomAndPan="magnify"><defs/><g><!--cluster ?? (Vue 3 + Element Plus)--><g class="cluster" data-entity="&#21069;&#31471; (Vue 3 + Element Plus)" data-source-line="16" data-uid="ent0002" id="cluster_&#21069;&#31471; (Vue 3 + Element Plus)"><path d="M527,6 L711.3125,6 A3.75,3.75 0 0 1 713.8125,8.5 L720.8125,29.6094 L1149,29.6094 A2.5,2.5 0 0 1 1151.5,32.1094 L1151.5,181.5 A2.5,2.5 0 0 1 1149,184 L527,184 A2.5,2.5 0 0 1 524.5,181.5 L524.5,8.5 A2.5,2.5 0 0 1 527,6" fill="none" style="stroke:#000000;stroke-width:1.5;"/><line style="stroke:#000000;stroke-width:1.5;" x1="524.5" x2="720.8125" y1="29.6094" y2="29.6094"/><text fill="#000000" font-family="sans-serif" font-size="14" font-weight="bold" lengthAdjust="spacing" textLength="183.3125" x="528.5" y="22.5332">&#21069;&#31471; (Vue 3 + Element Plus)</text></g><!--cluster Go ?? (?????, ????)--><g class="cluster" data-entity="Go &#26381;&#21153; (&#21333;&#19968;&#20195;&#30721;&#24211;, &#19977;&#31181;&#27169;&#24335;)" data-source-line="24" data-uid="ent0008" id="cluster_Go &#26381;&#21153; (&#21333;&#19968;&#20195;&#30721;&#24211;, &#19977;&#31181;&#27169;&#24335;)"><path d="M104,217 L308.1367,217 A3.75,3.75 0 0 1 310.6367,219.5 L317.6367,240.6094 L946,240.6094 A2.5,2.5 0 0 1 948.5,243.1094 L948.5,786 A2.5,2.5 0 0 1 946,788.5 L104,788.5 A2.5,2.5 0 0 1 101.5,786 L101.5,219.5 A2.5,2.5 0 0 1 104,217" fill="none" style="stroke:#000000;stroke-width:1.5;"/><line style="stroke:#000000;stroke-width:1.5;" x1="101.5" x2="317.6367" y1="240.6094" y2="240.6094"/><text fill="#000000" font-family="sans-serif" font-size="14" font-weight="bold" lengthAdjust="spacing" textLength="203.1367" x="105.5" y="233.5332">Go &#26381;&#21153; (&#21333;&#19968;&#20195;&#30721;&#24211;, &#19977;&#31181;&#27169;&#24335;)</text></g><!--cluster server ??--><g class="cluster" data-entity="server &#27169;&#24335;" data-source-line="25" data-uid="ent0009" id="cluster_server &#27169;&#24335;"><path d="M761,269.5 L836.8057,269.5 A3.75,3.75 0 0 1 839.3057,272 L846.3057,293.1094 L922,293.1094 A2.5,2.5 0 0 1 924.5,295.6094 L924.5,762 A2.5,2.5 0 0 1 922,764.5 L761,764.5 A2.5,2.5 0 0 1 758.5,762 L758.5,272 A2.5,2.5 0 0 1 761,269.5" fill="none" style="stroke:#000000;stroke-width:1.5;"/><line style="stroke:#000000;stroke-width:1.5;" x1="758.5" x2="846.3057" y1="293.1094" y2="293.1094"/><text fill="#000000" font-family="sans-serif" font-size="14" font-weight="bold" lengthAdjust="spacing" textLength="74.8057" x="762.5" y="286.0332">server &#27169;&#24335;</text></g><!--cluster worker ?? (? N)--><g class="cluster" data-entity="worker &#27169;&#24335; (&#215; N)" data-source-line="29" data-uid="ent0012" id="cluster_worker &#27169;&#24335; (&#215; N)"><path d="M128,261 L243.0645,261 A3.75,3.75 0 0 1 245.5645,263.5 L252.5645,284.6094 L732,284.6094 A2.5,2.5 0 0 1 734.5,287.1094 L734.5,753.5 A2.5,2.5 0 0 1 732,756 L128,756 A2.5,2.5 0 0 1 125.5,753.5 L125.5,263.5 A2.5,2.5 0 0 1 128,261" fill="none" style="stroke:#000000;stroke-width:1.5;"/><line style="stroke:#000000;stroke-width:1.5;" x1="125.5" x2="252.5645" y1="284.6094" y2="284.6094"/><text fill="#000000" font-family="sans-serif" font-size="14" font-weight="bold" lengthAdjust="spacing" textLength="114.0645" x="129.5" y="277.5332">worker &#27169;&#24335; (&#215; N)</text></g><!--entity target_view--><g class="entity" data-entity="target_view" data-source-line="17" data-uid="ent0003" id="entity_target_view"><rect fill="#FFCDD2" height="125.6563" rx="5" ry="5" style="stroke:#333333;stroke-width:0.5;" width="97.0068" x="541" y="42"/><text fill="#000000" font-family="sans-serif" font-size="14" font-style="italic" lengthAdjust="spacing" textLength="66.9443" x="556.0313" y="66.5332">&#171;frontend&#187;</text><text fill="#000000" font-family="sans-serif" font-size="14" lengthAdjust="spacing" textLength="56" x="551" y="84.1426">&#30446;&#26631;&#31649;&#29702;</text><text fill="#000000" font-family="sans-serif" font-size="14" lengthAdjust="spacing" textLength="42" x="551" y="101.752">&#9472;&#9472;&#9472;&#9472;&#9472;&#9472;</text><text fill="#000000" font-family="sans-serif" font-size="14" lengthAdjust="spacing" textLength="77.0068" x="551" y="119.3613">IP/&#22495;&#21517;/&#32593;&#27573;</text><text fill="#000000" font-family="sans-serif" font-size="14" lengthAdjust="spacing" textLength="56" x="551" y="136.9707">&#25209;&#37327;&#23548;&#20837;</text><text fill="#000000" font-family="sans-serif" font-size="14" lengthAdjust="spacing" textLength="59.8896" x="551" y="154.5801">&#20998;&#32452;/&#26631;&#31614;</text></g><!--entity task_view--><g class="entity" data-entity="task_view" data-source-line="18" data-uid="ent0004" id="entity_task_view"><rect fill="#FFCDD2" height="125.6563" rx="5" ry="5" style="stroke:#333333;stroke-width:0.5;" width="88.9443" x="673" y="42"/><text fill="#000000" font-family="sans-serif" font-size="14" font-style="italic" lengthAdjust="spacing" textLength="66.9443" x="684" y="66.5332">&#171;frontend&#187;</text><text fill="#000000" font-family="sans-serif" font-size="14" lengthAdjust="spacing" textLength="56" x="687.5273" y="84.1426">&#20219;&#21153;&#31649;&#29702;</text><text fill="#000000" font-family="sans-serif" font-size="14" lengthAdjust="spacing" textLength="42" x="687.5273" y="101.752">&#9472;&#9472;&#9472;&#9472;&#9472;&#9472;</text><text fill="#000000" font-family="sans-serif" font-size="14" lengthAdjust="spacing" textLength="59.8896" x="687.5273" y="119.3613">&#21019;&#24314;/&#26597;&#30475;</text><text fill="#000000" font-family="sans-serif" font-size="14" lengthAdjust="spacing" textLength="56" x="687.5273" y="136.9707">&#36827;&#24230;&#36319;&#36394;</text><text fill="#000000" font-family="sans-serif" font-size="14" lengthAdjust="spacing" textLength="59.8896" x="687.5273" y="154.5801">&#21462;&#28040;/&#26242;&#20572;</text></g><!--entity asset_view--><g class="entity" data-entity="asset_view" data-source-line="19" data-uid="ent0005" id="entity_asset_view"><rect fill="#FFCDD2" height="125.6563" rx="5" ry="5" style="stroke:#333333;stroke-width:0.5;" width="88.9443" x="797" y="42"/><text fill="#000000" font-family="sans-serif" font-size="14" font-style="italic" lengthAdjust="spacing" textLength="66.9443" x="808" y="66.5332">&#171;frontend&#187;</text><text fill="#000000" font-family="sans-serif" font-size="14" lengthAdjust="spacing" textLength="56" x="811.5273" y="84.1426">&#36164;&#20135;&#31649;&#29702;</text><text fill="#000000" font-family="sans-serif" font-size="14" lengthAdjust="spacing" textLength="42" x="811.5273" y="101.752">&#9472;&#9472;&#9472;&#9472;&#9472;&#9472;</text><text fill="#000000" font-family="sans-serif" font-size="14" lengthAdjust="spacing" textLength="56" x="811.5273" y="119.3613">&#36164;&#20135;&#21015;&#34920;</text><text fill="#000000" font-family="sans-serif" font-size="14" lengthAdjust="spacing" textLength="59.8896" x="811.5273" y="136.9707">&#31471;&#21475;/&#25351;&#32441;</text><text fill="#000000" font-family="sans-serif" font-size="14" lengthAdjust="spacing" textLength="56" x="811.5273" y="154.5801">&#23384;&#27963;&#29366;&#24577;</text></g><!--entity vuln_view--><g class="entity" data-entity="vuln_view" data-source-line="20" data-uid="ent0006" id="entity_vuln_view"><rect fill="#FFCDD2" height="125.6563" rx="5" ry="5" style="stroke:#333333;stroke-width:0.5;" width="88.9443" x="921" y="42"/><text fill="#000000" font-family="sans-serif" font-size="14" font-style="italic" lengthAdjust="spacing" textLength="66.9443" x="932" y="66.5332">&#171;frontend&#187;</text><text fill="#000000" font-family="sans-serif" font-size="14" lengthAdjust="spacing" textLength="56" x="935.5273" y="84.1426">&#28431;&#27934;&#31649;&#29702;</text><text fill="#000000" font-family="sans-serif" font-size="14" lengthAdjust="spacing" textLength="42" x="935.5273" y="101.752">&#9472;&#9472;&#9472;&#9472;&#9472;&#9472;</text><text fill="#000000" font-family="sans-serif" font-size="14" lengthAdjust="spacing" textLength="59.8896" x="935.5273" y="119.3613">&#21015;&#34920;/&#31579;&#36873;</text><text fill="#000000" font-family="sans-serif" font-size="14" lengthAdjust="spacing" textLength="56" x="935.5273" y="136.9707">&#29366;&#24577;&#26631;&#35760;</text><text fill="#000000" font-family="sans-serif" font-size="14" lengthAdjust="spacing" textLength="59.8896" x="935.5273" y="154.5801">&#22797;&#27979;/&#23548;&#20986;</text></g><!--entity template_view--><g class="entity" data-entity="template_view" data-source-line="21" data-uid="ent0007" id="entity_template_view"><rect fill="#FFCDD2" height="125.6563" rx="5" ry="5" style="stroke:#333333;stroke-width:0.5;" width="90" x="1045.5" y="42"/><text fill="#000000" font-family="sans-serif" font-size="14" font-style="italic" lengthAdjust="spacing" textLength="66.9443" x="1057.0278" y="66.5332">&#171;frontend&#187;</text><text fill="#000000" font-family="sans-serif" font-size="14" lengthAdjust="spacing" textLength="56" x="1055.5" y="84.1426">&#27169;&#26495;&#31649;&#29702;</text><text fill="#000000" font-family="sans-serif" font-size="14" lengthAdjust="spacing" textLength="42" x="1055.5" y="101.752">&#9472;&#9472;&#9472;&#9472;&#9472;&#9472;</text><text fill="#000000" font-family="sans-serif" font-size="14" lengthAdjust="spacing" textLength="59.8896" x="1055.5" y="119.3613">&#21516;&#27493;/&#23548;&#20837;</text><text fill="#000000" font-family="sans-serif" font-size="14" lengthAdjust="spacing" textLength="59.8896" x="1055.5" y="136.9707">&#21551;&#29992;/&#31105;&#29992;</text><text fill="#000000" font-family="sans-serif" font-size="14" lengthAdjust="spacing" textLength="70" x="1055.5" y="154.5801">&#35823;&#25253;&#29575;&#32479;&#35745;</text></g><!--entity api--><g class="entity" data-entity="api" data-source-line="26" data-uid="ent0010" id="entity_api"><rect fill="#B3E5FC" height="125.6563" rx="5" ry="5" style="stroke:#333333;stroke-width:0.5;" width="133.5928" x="774.5" y="305.5"/><text fill="#000000" font-family="sans-serif" font-size="14" font-style="italic" lengthAdjust="spacing" textLength="34.2549" x="824.1689" y="330.0332">&#171;api&#187;</text><text fill="#000000" font-family="sans-serif" font-size="14" lengthAdjust="spacing" textLength="48.2412" x="784.5" y="347.6426">Gin API</text><text fill="#000000" font-family="sans-serif" font-size="14" lengthAdjust="spacing" textLength="42" x="784.5" y="365.252">&#9472;&#9472;&#9472;&#9472;&#9472;&#9472;</text><text fill="#000000" font-family="sans-serif" font-size="14" lengthAdjust="spacing" textLength="113.5928" x="784.5" y="382.8613">Target/Task/Asset</text><text fill="#000000" font-family="sans-serif" font-size="14" lengthAdjust="spacing" textLength="90.2686" x="784.5" y="400.4707">Vuln/Template</text><text fill="#000000" font-family="sans-serif" font-size="14" lengthAdjust="spacing" textLength="106.9824" x="784.5" y="418.0801">CORS + API Key</text></g><!--entity sched--><g class="entity" data-entity="sched" data-source-line="27" data-uid="ent0011" id="entity_sched"><rect fill="#F3E5F5" height="143.2656" rx="5" ry="5" style="stroke:#333333;stroke-width:0.5;" width="119.9551" x="776.5" y="605.5"/><text fill="#000000" font-family="sans-serif" font-size="14" font-style="italic" lengthAdjust="spacing" textLength="42.8066" x="815.0742" y="630.0332">&#171;core&#187;</text><text fill="#000000" font-family="sans-serif" font-size="14" lengthAdjust="spacing" textLength="63.041" x="786.5" y="647.6426">Scheduler</text><text fill="#000000" font-family="sans-serif" font-size="14" lengthAdjust="spacing" textLength="42" x="786.5" y="665.252">&#9472;&#9472;&#9472;&#9472;&#9472;&#9472;</text><text fill="#000000" font-family="sans-serif" font-size="14" lengthAdjust="spacing" textLength="77.041" x="786.5" y="682.8613">asynq.Client</text><text fill="#000000" font-family="sans-serif" font-size="14" lengthAdjust="spacing" textLength="84" x="786.5" y="700.4707">&#21807;&#19968;&#20837;&#38431;&#20837;&#21475;</text><text fill="#000000" font-family="sans-serif" font-size="14" lengthAdjust="spacing" textLength="98.834" x="786.5" y="718.0801">asynq.Inspector</text><text fill="#000000" font-family="sans-serif" font-size="14" lengthAdjust="spacing" textLength="99.9551" x="786.5" y="735.6895">&#38454;&#27573;&#32534;&#25490; + &#21462;&#28040;</text></g><!--entity worker--><g class="entity" data-entity="worker" data-source-line="30" data-uid="ent0013" id="entity_worker"><rect fill="#F3E5F5" height="143.2656" rx="5" ry="5" style="stroke:#333333;stroke-width:0.5;" width="111.7861" x="374.5" y="297"/><text fill="#000000" font-family="sans-serif" font-size="14" font-style="italic" lengthAdjust="spacing" textLength="42.8066" x="408.9897" y="321.5332">&#171;core&#187;</text><text fill="#000000" font-family="sans-serif" font-size="14" lengthAdjust="spacing" textLength="45.1104" x="384.5" y="339.1426">Worker</text><text fill="#000000" font-family="sans-serif" font-size="14" lengthAdjust="spacing" textLength="42" x="384.5" y="356.752">&#9472;&#9472;&#9472;&#9472;&#9472;&#9472;</text><text fill="#000000" font-family="sans-serif" font-size="14" lengthAdjust="spacing" textLength="82.4824" x="384.5" y="374.3613">asynq.Server</text><text fill="#000000" font-family="sans-serif" font-size="14" lengthAdjust="spacing" textLength="91.7861" x="384.5" y="391.9707">4&#32423;&#38431;&#21015;&#20248;&#20808;&#32423;</text><text fill="#000000" font-family="sans-serif" font-size="14" lengthAdjust="spacing" textLength="89.4961" x="384.5" y="409.5801">cancelHandler</text><text fill="#000000" font-family="sans-serif" font-size="14" lengthAdjust="spacing" textLength="84.8066" x="384.5" y="427.1895">targetLimiters</text></g><!--entity dom--><g class="entity" data-entity="dom" data-source-line="31" data-uid="ent0014" id="entity_dom"><rect fill="#C8E6C9" height="108.0469" rx="5" ry="5" style="stroke:#333333;stroke-width:0.5;" width="87.3789" x="631" y="623"/><text fill="#000000" font-family="sans-serif" font-size="14" font-style="italic" lengthAdjust="spacing" textLength="65.3789" x="642" y="647.5332">&#171;scanner&#187;</text><text fill="#000000" font-family="sans-serif" font-size="14" lengthAdjust="spacing" textLength="45.917" x="645.9102" y="665.1426">domain</text><text fill="#000000" font-family="sans-serif" font-size="14" lengthAdjust="spacing" textLength="42" x="645.9102" y="682.752">&#9472;&#9472;&#9472;&#9472;&#9472;&#9472;</text><text fill="#000000" font-family="sans-serif" font-size="14" lengthAdjust="spacing" textLength="57.5586" x="645.9102" y="700.3613">DNS&#35299;&#26512;</text><text fill="#000000" font-family="sans-serif" font-size="14" lengthAdjust="spacing" textLength="56" x="645.9102" y="717.9707">&#23383;&#20856;&#29190;&#30772;</text></g><!--entity alv--><g class="entity" data-entity="alv" data-source-line="32" data-uid="ent0015" id="entity_alv"><rect fill="#C8E6C9" height="108.0469" rx="5" ry="5" style="stroke:#333333;stroke-width:0.5;" width="88.4414" x="141.5" y="623"/><text fill="#000000" font-family="sans-serif" font-size="14" font-style="italic" lengthAdjust="spacing" textLength="65.3789" x="153.0313" y="647.5332">&#171;scanner&#187;</text><text fill="#000000" font-family="sans-serif" font-size="14" lengthAdjust="spacing" textLength="28.793" x="151.5" y="665.1426">alive</text><text fill="#000000" font-family="sans-serif" font-size="14" lengthAdjust="spacing" textLength="42" x="151.5" y="682.752">&#9472;&#9472;&#9472;&#9472;&#9472;&#9472;</text><text fill="#000000" font-family="sans-serif" font-size="14" lengthAdjust="spacing" textLength="68.4414" x="151.5" y="700.3613">HTTP/TCP</text><text fill="#000000" font-family="sans-serif" font-size="14" lengthAdjust="spacing" textLength="28" x="151.5" y="717.9707">&#25506;&#27979;</text></g><!--entity prt--><g class="entity" data-entity="prt" data-source-line="33" data-uid="ent0016" id="entity_prt"><rect fill="#C8E6C9" height="108.0469" rx="5" ry="5" style="stroke:#333333;stroke-width:0.5;" width="87.3789" x="265" y="623"/><text fill="#000000" font-family="sans-serif" font-size="14" font-style="italic" lengthAdjust="spacing" textLength="65.3789" x="276" y="647.5332">&#171;scanner&#187;</text><text fill="#000000" font-family="sans-serif" font-size="14" lengthAdjust="spacing" textLength="24.124" x="280.2964" y="665.1426">port</text><text fill="#000000" font-family="sans-serif" font-size="14" lengthAdjust="spacing" textLength="42" x="280.2964" y="682.752">&#9472;&#9472;&#9472;&#9472;&#9472;&#9472;</text><text fill="#000000" font-family="sans-serif" font-size="14" lengthAdjust="spacing" textLength="35.0205" x="280.2964" y="700.3613">nmap</text><text fill="#000000" font-family="sans-serif" font-size="14" lengthAdjust="spacing" textLength="56.7861" x="280.2964" y="717.9707">CPE&#36755;&#20986;</text></g><!--entity fgr--><g class="entity" data-entity="fgr" data-source-line="34" data-uid="ent0017" id="entity_fgr"><rect fill="#C8E6C9" height="108.0469" rx="5" ry="5" style="stroke:#333333;stroke-width:0.5;" width="87.3789" x="387" y="623"/><text fill="#000000" font-family="sans-serif" font-size="14" font-style="italic" lengthAdjust="spacing" textLength="65.3789" x="398" y="647.5332">&#171;scanner&#187;</text><text fill="#000000" font-family="sans-serif" font-size="14" lengthAdjust="spacing" textLength="35.0205" x="402.6895" y="665.1426">finger</text><text fill="#000000" font-family="sans-serif" font-size="14" lengthAdjust="spacing" textLength="42" x="402.6895" y="682.752">&#9472;&#9472;&#9472;&#9472;&#9472;&#9472;</text><text fill="#000000" font-family="sans-serif" font-size="14" lengthAdjust="spacing" textLength="36.5791" x="402.6895" y="700.3613">nuclei</text><text fill="#000000" font-family="sans-serif" font-size="14" lengthAdjust="spacing" textLength="56" x="402.6895" y="717.9707">&#25351;&#32441;&#27169;&#26495;</text></g><!--entity vul--><g class="entity" data-entity="vul" data-source-line="35" data-uid="ent0018" id="entity_vul"><rect fill="#C8E6C9" height="125.6563" rx="5" ry="5" style="stroke:#333333;stroke-width:0.5;" width="87.3789" x="509" y="614"/><text fill="#000000" font-family="sans-serif" font-size="14" font-style="italic" lengthAdjust="spacing" textLength="65.3789" x="520" y="638.5332">&#171;scanner&#187;</text><text fill="#000000" font-family="sans-serif" font-size="14" lengthAdjust="spacing" textLength="25.6826" x="524.2964" y="656.1426">vuln</text><text fill="#000000" font-family="sans-serif" font-size="14" lengthAdjust="spacing" textLength="42" x="524.2964" y="673.752">&#9472;&#9472;&#9472;&#9472;&#9472;&#9472;</text><text fill="#000000" font-family="sans-serif" font-size="14" lengthAdjust="spacing" textLength="36.5791" x="524.2964" y="691.3613">nuclei</text><text fill="#000000" font-family="sans-serif" font-size="14" lengthAdjust="spacing" textLength="56.7861" x="524.2964" y="708.9707">CPE&#21305;&#37197;</text><text fill="#000000" font-family="sans-serif" font-size="14" lengthAdjust="spacing" textLength="56" x="524.2964" y="726.5801">&#35823;&#25253;&#27835;&#29702;</text></g><!--entity redis--><g class="entity" data-entity="redis" data-source-line="39" data-uid="ent0019" id="entity_redis"><path d="M11,894 L145.5166,894 C150.5166,894 150.5166,969.4375 150.5166,969.4375 C150.5166,969.4375 150.5166,1044.875 145.5166,1044.875 L11,1044.875 C6,1044.875 6,969.4375 6,969.4375 C6,969.4375 6,894 11,894" fill="#F1F1F1" style="stroke:#181818;stroke-width:0.5;"/><path d="M145.5166,894 C140.5166,894 140.5166,969.4375 140.5166,969.4375 C140.5166,1044.875 145.5166,1044.875 145.5166,1044.875" fill="none" style="stroke:#181818;stroke-width:0.5;"/><text fill="#000000" font-family="sans-serif" font-size="14" font-style="italic" lengthAdjust="spacing" textLength="54.5029" x="46.0068" y="913.5332">&#171;queue&#187;</text><text fill="#000000" font-family="sans-serif" font-size="14" lengthAdjust="spacing" textLength="35.793" x="11" y="931.1426">Redis</text><text fill="#000000" font-family="sans-serif" font-size="14" lengthAdjust="spacing" textLength="42" x="11" y="948.752">&#9472;&#9472;&#9472;&#9472;&#9472;&#9472;</text><text fill="#000000" font-family="sans-serif" font-size="14" lengthAdjust="spacing" textLength="98.7998" x="11" y="966.3613">Asynq &#20219;&#21153;&#38431;&#21015;</text><text fill="#000000" font-family="sans-serif" font-size="14" lengthAdjust="spacing" textLength="99.5928" x="11" y="983.9707">retest(9) high(6)</text><text fill="#000000" font-family="sans-serif" font-size="14" lengthAdjust="spacing" textLength="101.1514" x="11" y="1001.5801">default(3) low(1)</text><text fill="#000000" font-family="sans-serif" font-size="14" lengthAdjust="spacing" textLength="70" x="11" y="1019.1895">&#9472;&#9472;&#9472;&#9472;&#9472;&#9472;&#9472;&#9472;&#9472;&#9472;</text><text fill="#000000" font-family="sans-serif" font-size="14" lengthAdjust="spacing" textLength="124.5166" x="11" y="1036.7988">cancelled_tasks Set</text></g><!--entity db--><g class="entity" data-entity="db" data-source-line="41" data-uid="ent0020" id="entity_db"><path d="M516.5,894.5 C516.5,884.5 592.2549,884.5 592.2549,884.5 C592.2549,884.5 668.0098,884.5 668.0098,894.5 L668.0098,1044.375 C668.0098,1054.375 592.2549,1054.375 592.2549,1054.375 C592.2549,1054.375 516.5,1054.375 516.5,1044.375 L516.5,894.5" fill="#F1F1F1" style="stroke:#181818;stroke-width:0.5;"/><path d="M516.5,894.5 C516.5,904.5 592.2549,904.5 592.2549,904.5 C592.2549,904.5 668.0098,904.5 668.0098,894.5" fill="none" style="stroke:#181818;stroke-width:0.5;"/><text fill="#000000" font-family="sans-serif" font-size="14" font-style="italic" lengthAdjust="spacing" textLength="62.2686" x="561.1206" y="923.0332">&#171;storage&#187;</text><text fill="#000000" font-family="sans-serif" font-size="14" lengthAdjust="spacing" textLength="46.6758" x="526.5" y="940.6426">MySQL</text><text fill="#000000" font-family="sans-serif" font-size="14" lengthAdjust="spacing" textLength="42" x="526.5" y="958.252">&#9472;&#9472;&#9472;&#9472;&#9472;&#9472;</text><text fill="#000000" font-family="sans-serif" font-size="14" lengthAdjust="spacing" textLength="87.1445" x="526.5" y="975.8613">targets / tasks</text><text fill="#000000" font-family="sans-serif" font-size="14" lengthAdjust="spacing" textLength="83.2549" x="526.5" y="993.4707">assets / ports</text><text fill="#000000" font-family="sans-serif" font-size="14" lengthAdjust="spacing" textLength="86.3721" x="526.5" y="1011.0801">fingers / vulns</text><text fill="#000000" font-family="sans-serif" font-size="14" lengthAdjust="spacing" textLength="131.5098" x="526.5" y="1028.6895">templates / task_logs</text><text fill="#000000" font-family="sans-serif" font-size="14" lengthAdjust="spacing" textLength="44.3584" x="526.5" y="1046.2988">configs</text></g><g class="entity" data-entity="GMN21" data-source-line="44" data-uid="ent0022" id="entity_GMN21"><path d="M186,858 L186,965.5 L151.21,969.5 L186,973.5 L186,1080.5703 A0,0 0 0 0 186,1080.5703 L481.1616,1080.5703 A0,0 0 0 0 481.1616,1080.5703 L481.1616,868 L471.1616,858 L186,858 A0,0 0 0 0 186,858" fill="#FEFFDD" style="stroke:#181818;stroke-width:0.5;"/><path d="M471.1616,858 L471.1616,868 L481.1616,868 L471.1616,858" fill="#FEFFDD" style="stroke:#181818;stroke-width:0.5;"/><text fill="#000000" font-family="sans-serif" font-size="13" font-weight="bold" lengthAdjust="spacing" textLength="80.4375" x="192" y="876.4951">&#26680;&#24515;&#35774;&#35745;&#21407;&#21017;</text><text fill="#000000" font-family="sans-serif" font-size="13" lengthAdjust="spacing" textLength="3.6118" x="192" y="892.8467">&#160;</text><text fill="#000000" font-family="sans-serif" font-size="13" lengthAdjust="spacing" textLength="150.2617" x="192" y="909.1982">Scheduler &#21644; Worker &#20043;&#38388;</text><text fill="#000000" font-family="sans-serif" font-size="13" lengthAdjust="spacing" textLength="183.46" x="192" y="925.5498">&#21807;&#19968;&#30340;&#36890;&#20449;&#26041;&#24335;&#26159; Redis &#38431;&#21015;&#12290;</text><text fill="#000000" font-family="sans-serif" font-size="13" lengthAdjust="spacing" textLength="3.6118" x="192" y="941.9014">&#160;</text><text fill="#000000" font-family="sans-serif" font-size="13" lengthAdjust="spacing" textLength="77.6699" x="192" y="958.2529">-mode=all &#26102;:</text><text fill="#000000" font-family="sans-serif" font-size="13" lengthAdjust="spacing" textLength="274.1616" x="192" y="974.6045">Scheduler &#20837;&#38431; &#8594; &#26412;&#36827;&#31243; Worker &#20174; Redis &#25289;&#21462;</text><text fill="#000000" font-family="sans-serif" font-size="13" lengthAdjust="spacing" textLength="3.6118" x="192" y="990.9561">&#160;</text><text fill="#000000" font-family="sans-serif" font-size="13" lengthAdjust="spacing" textLength="154.6035" x="192" y="1007.3076">-mode=server + worker &#26102;:</text><text fill="#000000" font-family="sans-serif" font-size="13" lengthAdjust="spacing" textLength="261.1616" x="192" y="1023.6592">Scheduler &#20837;&#38431; &#8594; &#36828;&#31243; Worker &#20174; Redis &#25289;&#21462;</text><text fill="#000000" font-family="sans-serif" font-size="13" lengthAdjust="spacing" textLength="3.6118" x="192" y="1040.0107">&#160;</text><text fill="#000000" font-family="sans-serif" font-size="13" lengthAdjust="spacing" textLength="156" x="192" y="1056.3623">&#20004;&#31181;&#27169;&#24335;&#25968;&#25454;&#27969;&#36335;&#24452;&#19968;&#33268;&#65292;</text><text fill="#000000" font-family="sans-serif" font-size="13" lengthAdjust="spacing" textLength="182" x="192" y="1072.7139">&#20174;&#31532;&#19968;&#22825;&#36215;&#23601;&#20855;&#22791;&#20998;&#24067;&#24335;&#33021;&#21147;&#12290;</text></g><g class="entity" data-entity="GMN24" data-source-line="60" data-uid="ent0025" id="entity_GMN24"><path d="M965,241 L965,496.2734 L1142,496.2734 L1142,251 L1132,241 L965,241" fill="#FEFFDD" style="stroke:#181818;stroke-width:0.5;"/><path d="M1132,241 L1132,251 L1142,251 L1132,241" fill="#FEFFDD" style="stroke:#181818;stroke-width:1;"/><text fill="#000000" font-family="sans-serif" font-size="13" font-weight="bold" lengthAdjust="spacing" textLength="128.5972" x="971" y="259.4951">&#38454;&#27573;&#25512;&#36827;: &#21333;&#30446;&#26631;&#31890;&#24230;</text><text fill="#000000" font-family="sans-serif" font-size="13" lengthAdjust="spacing" textLength="3.6118" x="971" y="275.8467">&#160;</text><text fill="#000000" font-family="sans-serif" font-size="13" lengthAdjust="spacing" textLength="143" x="971" y="292.1982">&#27599;&#20010;&#30446;&#26631;&#23436;&#25104;&#24403;&#21069;&#38454;&#27573;&#21518;</text><text fill="#000000" font-family="sans-serif" font-size="13" lengthAdjust="spacing" textLength="156" x="971" y="308.5498">&#31435;&#21363;&#20837;&#38431;&#19979;&#19968;&#38454;&#27573;&#65292;&#19981;&#31561;&#24453;</text><text fill="#000000" font-family="sans-serif" font-size="13" lengthAdjust="spacing" textLength="65" x="971" y="324.9014">&#20854;&#20182;&#30446;&#26631;&#12290;</text><text fill="#000000" font-family="sans-serif" font-size="13" lengthAdjust="spacing" textLength="3.6118" x="971" y="341.2529">&#160;</text><text fill="#000000" font-family="sans-serif" font-size="13" lengthAdjust="spacing" textLength="153.1118" x="971" y="357.6045">&#19981;&#21516; Worker &#24182;&#34892;&#28040;&#36153;&#19981;&#21516;</text><text fill="#000000" font-family="sans-serif" font-size="13" lengthAdjust="spacing" textLength="130" x="971" y="373.9561">&#30446;&#26631;&#30340;&#21516;&#19968;&#38454;&#27573;&#20219;&#21153;&#65292;</text><text fill="#000000" font-family="sans-serif" font-size="13" lengthAdjust="spacing" textLength="91" x="971" y="390.3076">&#22825;&#28982;&#36127;&#36733;&#22343;&#34913;&#12290;</text><text fill="#000000" font-family="sans-serif" font-size="13" lengthAdjust="spacing" textLength="3.6118" x="971" y="406.6592">&#160;</text><text fill="#000000" font-family="sans-serif" font-size="13" font-weight="bold" lengthAdjust="spacing" textLength="88.8735" x="971" y="423.0107">cancelHandler</text><text fill="#000000" font-family="sans-serif" font-size="13" lengthAdjust="spacing" textLength="3.6118" x="971" y="439.3623">&#160;</text><text fill="#000000" font-family="sans-serif" font-size="13" lengthAdjust="spacing" textLength="137.96" x="971" y="455.7139">&#21462;&#28040;&#26102;&#36820;&#22238; SkipRetry&#65292;</text><text fill="#000000" font-family="sans-serif" font-size="13" lengthAdjust="spacing" textLength="134.3545" x="971" y="472.0654">&#36991;&#20813; Asynq &#25353;&#37325;&#35797;&#31574;&#30053;</text><text fill="#000000" font-family="sans-serif" font-size="13" lengthAdjust="spacing" textLength="143" x="971" y="488.417">&#37325;&#26032;&#25289;&#36215;&#24050;&#21462;&#28040;&#30340;&#20219;&#21153;&#12290;</text></g><g class="entity" data-entity="GMN27" data-source-line="78" data-uid="ent0028" id="entity_GMN27"><path d="M964.5,574 L964.5,780.2188 L1152.7734,780.2188 L1152.7734,584 L1142.7734,574 L964.5,574" fill="#FEFFDD" style="stroke:#181818;stroke-width:0.5;"/><path d="M1142.7734,574 L1142.7734,584 L1152.7734,584 L1142.7734,574" fill="#FEFFDD" style="stroke:#181818;stroke-width:1;"/><text fill="#000000" font-family="sans-serif" font-size="13" font-weight="bold" lengthAdjust="spacing" textLength="110.7793" x="970.5" y="592.4951">CPE &#39537;&#21160;&#27169;&#26495;&#21305;&#37197;</text><text fill="#000000" font-family="sans-serif" font-size="13" lengthAdjust="spacing" textLength="3.6118" x="970.5" y="608.8467">&#160;</text><text fill="#000000" font-family="sans-serif" font-size="13" lengthAdjust="spacing" textLength="167.2734" x="970.5" y="625.1982">nmap &#36755;&#20986; CPE &#8594; go-cpe &#24211;</text><text fill="#000000" font-family="sans-serif" font-size="13" lengthAdjust="spacing" textLength="162.1826" x="970.5" y="641.5498">WFN &#21305;&#37197; Template.CPE &#8594;</text><text fill="#000000" font-family="sans-serif" font-size="13" lengthAdjust="spacing" textLength="117" x="970.5" y="657.9014">&#31579;&#36873;&#36866;&#29992;&#27169;&#26495;&#20877;&#25191;&#34892;</text><text fill="#000000" font-family="sans-serif" font-size="13" lengthAdjust="spacing" textLength="3.6118" x="970.5" y="674.2529">&#160;</text><text fill="#000000" font-family="sans-serif" font-size="13" lengthAdjust="spacing" textLength="145.1899" x="970.5" y="690.6045">&#19981;&#26159;&#20840;&#37327;&#36305; nuclei &#27169;&#26495;&#24211;</text><text fill="#000000" font-family="sans-serif" font-size="13" lengthAdjust="spacing" textLength="3.6118" x="970.5" y="706.9561">&#160;</text><text fill="#000000" font-family="sans-serif" font-size="13" font-weight="bold" lengthAdjust="spacing" textLength="80.4375" x="970.5" y="723.3076">&#35823;&#25253;&#33258;&#21160;&#27835;&#29702;</text><text fill="#000000" font-family="sans-serif" font-size="13" lengthAdjust="spacing" textLength="3.6118" x="970.5" y="739.6592">&#160;</text><text fill="#000000" font-family="sans-serif" font-size="13" lengthAdjust="spacing" textLength="88.3403" x="970.5" y="756.0107">&#32047;&#35745;&#21028;&#23450; &#8805;5 &#27425;</text><text fill="#000000" font-family="sans-serif" font-size="13" lengthAdjust="spacing" textLength="147.9575" x="970.5" y="772.3623">&#35823;&#25253;&#29575; &#8805;80% &#8594; &#33258;&#21160;&#31105;&#29992;</text></g><!--link worker to GMN24--><g class="link" data-entity-1="worker" data-entity-2="GMN24" data-source-line="60" data-uid="lnk26" id="link_worker_GMN24"><path d="M486.79,331.13 C552.81,289.74 667.12,225.54 776,200.5 C804.37,193.97 878.63,193.97 907,200.5 C915.43,202.44 917.73,203.62 924.5,209 C938.58,220.19 952.13,233.17 964.8,246.8" fill="none" id="worker-GMN24" style="stroke:#666666;stroke-width:1;stroke-dasharray:7.0,7.0;"/></g><!--link vul to GMN27--><g class="link" data-entity-1="vul" data-entity-2="GMN27" data-source-line="78" data-uid="lnk29" id="link_vul_GMN27"><path d="M570.77,613.89 C582.82,584.45 601.88,552.17 631,535 C683.83,503.84 849.96,512.45 907,535 C929.63,543.95 950.86,558.05 969.85,573.96" fill="none" id="vul-GMN27" style="stroke:#666666;stroke-width:1;stroke-dasharray:7.0,7.0;"/></g><!--link target_view to api--><g class="link" data-entity-1="target_view" data-entity-2="api" data-source-line="93" data-uid="lnk30" id="link_target_view_api"><path d="M628.39,168.13 C636.39,177.23 645.48,185.66 655.5,192 C685.85,211.2 704.75,188.89 734.5,209 C769.43,232.62 793.2075,266.5207 811.1475,300.0207" fill="none" id="target_view-to-api" style="stroke:#666666;stroke-width:1;"/><polygon fill="#666666" points="813.98,305.31,813.2574,295.4877,811.6196,300.9022,806.205,299.2644,813.98,305.31" style="stroke:#666666;stroke-width:1;"/></g><!--link task_view to api--><g class="link" data-entity-1="task_view" data-entity-2="api" data-source-line="94" data-uid="lnk31" id="link_task_view_api"><path d="M747.04,168.3 C766.67,209.7 789.7689,258.4088 809.3989,299.7988" fill="none" id="task_view-to-api" style="stroke:#666666;stroke-width:1;"/><polygon fill="#666666" points="811.97,305.22,811.7275,295.3741,809.8274,300.7023,804.4992,298.8023,811.97,305.22" style="stroke:#666666;stroke-width:1;"/></g><!--link asset_view to api--><g class="link" data-entity-1="asset_view" data-entity-2="api" data-source-line="95" data-uid="lnk32" id="link_asset_view_api"><path d="M841.5,168.3 C841.5,209.7 841.5,257.83 841.5,299.22" fill="none" id="asset_view-to-api" style="stroke:#666666;stroke-width:1;"/><polygon fill="#666666" points="841.5,305.22,845.5,296.22,841.5,300.22,837.5,296.22,841.5,305.22" style="stroke:#666666;stroke-width:1;"/></g><!--link vuln_view to api--><g class="link" data-entity-1="vuln_view" data-entity-2="api" data-source-line="96" data-uid="lnk33" id="link_vuln_view_api"><path d="M935.96,168.3 C916.33,209.7 893.2311,258.4088 873.6011,299.7988" fill="none" id="vuln_view-to-api" style="stroke:#666666;stroke-width:1;"/><polygon fill="#666666" points="871.03,305.22,878.5008,298.8023,873.1726,300.7023,871.2725,295.3741,871.03,305.22" style="stroke:#666666;stroke-width:1;"/></g><!--link template_view to api--><g class="link" data-entity-1="template_view" data-entity-2="api" data-source-line="97" data-uid="lnk34" id="link_template_view_api"><path d="M1053.76,168.14 C1046.08,177.25 1037.29,185.67 1027.5,192 C996.98,211.74 977.6,188.61 947.5,209 C912.69,232.58 889.1348,266.4659 871.4148,299.9759" fill="none" id="template_view-to-api" style="stroke:#666666;stroke-width:1;"/><polygon fill="#666666" points="868.61,305.28,876.3532,299.1937,870.9473,300.8599,869.2811,295.454,868.61,305.28" style="stroke:#666666;stroke-width:1;"/></g><!--link api to db--><g class="link" data-entity-1="api" data-entity-2="db" data-source-line="98" data-uid="lnk35" id="link_api_db"><path d="M882.8,431.76 C900.47,454.54 922.75,478.89 947.5,496 C1033.87,555.71 1109.73,488.37 1170.5,574 C1227.73,654.65 1229.62,717.23 1170.5,796.5 C1110.02,877.59 817.4042,933.319 674.6842,956.229" fill="none" id="api-to-db" style="stroke:#666666;stroke-width:1;"/><polygon fill="#666666" points="668.76,957.18,678.2802,959.703,673.6968,956.3875,677.0123,951.8041,668.76,957.18" style="stroke:#666666;stroke-width:1;"/><text fill="#000000" font-family="sans-serif" font-size="13" lengthAdjust="spacing" textLength="37.5527" x="1214.5" y="682.4951">CRUD</text></g><!--link api to db--><g class="link" data-entity-1="api" data-entity-2="db" data-source-line="112" data-uid="lnk49" id="link_api_db"><path d="M879.33,431.5 C897.07,455.39 920.33,480.61 947.5,496 C1072.24,566.66 1179.46,455.73 1260.5,574 C1316.4,655.58 1317.58,715.75 1260.5,796.5 C1191.98,893.44 834.9442,942.7352 674.6442,960.3352" fill="none" id="api-to-db-1" style="stroke:#666666;stroke-width:1;"/><polygon fill="#666666" points="668.68,960.99,678.0628,963.9839,673.6501,960.4443,677.1897,956.0316,668.68,960.99" style="stroke:#666666;stroke-width:1;"/><text fill="#000000" font-family="sans-serif" font-size="13" lengthAdjust="spacing" textLength="26" x="1303.5" y="682.4951">&#26597;&#35810;</text></g><!--link api to sched--><g class="link" data-entity-1="api" data-entity-2="sched" data-source-line="99" data-uid="lnk36" id="link_api_sched"><path d="M840.49,431.52 C839.67,481.9 838.6082,546.9608 837.7482,599.4908" fill="none" id="api-to-sched" style="stroke:#666666;stroke-width:1;"/><polygon fill="#666666" points="837.65,605.49,841.7968,596.5567,837.7318,600.4907,833.7979,596.4257,837.65,605.49" style="stroke:#666666;stroke-width:1;"/><text fill="#000000" font-family="sans-serif" font-size="13" lengthAdjust="spacing" textLength="52" x="839.5" y="540.4951">&#21019;&#24314;&#20219;&#21153;</text></g><!--link sched to redis--><g class="link" data-entity-1="sched" data-entity-2="redis" data-source-line="100" data-uid="lnk37" id="link_sched_redis"><path d="M783.79,748.55 C769.04,765.54 752.17,782.74 734.5,796.5 C709.81,815.74 701.74,819.9 671.5,828 C563.33,856.96 268.16,806.95 168.5,858 C151.87,866.52 141.1668,875.0922 128.7768,889.3422" fill="none" id="sched-to-redis" style="stroke:#666666;stroke-width:1;"/><polygon fill="#666666" points="124.84,893.87,133.7638,889.7028,128.1207,890.0968,127.7267,884.4537,124.84,893.87" style="stroke:#666666;stroke-width:1;"/><text fill="#000000" font-family="sans-serif" font-size="13" lengthAdjust="spacing" textLength="26" x="716.5" y="824.4951">&#20837;&#38431;</text></g><!--link redis to worker--><g class="link" data-entity-1="redis" data-entity-2="worker" data-source-line="101" data-uid="lnk38" id="link_redis_worker"><path d="M62.08,893.99 C47.79,810.03 37.43,672.46 95.5,574 C157.38,469.09 290.4663,412.8423 368.5963,387.3323" fill="none" id="redis-to-worker" style="stroke:#666666;stroke-width:1;"/><polygon fill="#666666" points="374.3,385.47,364.503,384.461,369.5469,387.0219,366.986,392.0659,374.3,385.47" style="stroke:#666666;stroke-width:1;"/><text fill="#000000" font-family="sans-serif" font-size="13" lengthAdjust="spacing" textLength="26" x="96.5" y="682.4951">&#28040;&#36153;</text></g><!--link worker to dom--><g class="link" data-entity-1="worker" data-entity-2="dom" data-source-line="102" data-uid="lnk39" id="link_worker_dom"><path d="M486.87,426.47 C524.76,466.16 574.67,521.24 613.5,574 C624.75,589.29 632.7328,601.5973 642.2728,617.7073" fill="none" id="worker-to-dom" style="stroke:#666666;stroke-width:1;"/><polygon fill="#666666" points="645.33,622.87,644.1859,613.0878,642.7823,618.5678,637.3024,617.1641,645.33,622.87" style="stroke:#666666;stroke-width:1;"/></g><!--link worker to alv--><g class="link" data-entity-1="worker" data-entity-2="alv" data-source-line="103" data-uid="lnk40" id="link_worker_alv"><path d="M374.25,426.56 C336.42,466.29 286.52,521.38 247.5,574 C236.14,589.31 228.0312,601.6476 218.3412,617.7676" fill="none" id="worker-to-alv" style="stroke:#666666;stroke-width:1;"/><polygon fill="#666666" points="215.25,622.91,223.3151,617.2572,217.826,618.6246,216.4585,613.1356,215.25,622.91" style="stroke:#666666;stroke-width:1;"/></g><!--link worker to prt--><g class="link" data-entity-1="worker" data-entity-2="prt" data-source-line="104" data-uid="lnk41" id="link_worker_prt"><path d="M402.36,440.2 C380.19,495.89 351.9885,566.7352 331.8685,617.2952" fill="none" id="worker-to-prt" style="stroke:#666666;stroke-width:1;"/><polygon fill="#666666" points="329.65,622.87,336.6942,615.9868,331.4987,618.2243,329.2611,613.0288,329.65,622.87" style="stroke:#666666;stroke-width:1;"/></g><!--link worker to fgr--><g class="link" data-entity-1="worker" data-entity-2="fgr" data-source-line="105" data-uid="lnk42" id="link_worker_fgr"><path d="M430.5,440.2 C430.5,495.89 430.5,566.31 430.5,616.87" fill="none" id="worker-to-fgr" style="stroke:#666666;stroke-width:1;"/><polygon fill="#666666" points="430.5,622.87,434.5,613.87,430.5,617.87,426.5,613.87,430.5,622.87" style="stroke:#666666;stroke-width:1;"/></g><!--link worker to vul--><g class="link" data-entity-1="worker" data-entity-2="vul" data-source-line="106" data-uid="lnk43" id="link_worker_vul"><path d="M458.64,440.2 C479.54,492.71 505.562,558.065 525.582,608.385" fill="none" id="worker-to-vul" style="stroke:#666666;stroke-width:1;"/><polygon fill="#666666" points="527.8,613.96,528.1896,604.1189,525.9516,609.3142,520.7563,607.0762,527.8,613.96" style="stroke:#666666;stroke-width:1;"/></g><!--link dom to db--><g class="link" data-entity-1="dom" data-entity-2="db" data-source-line="107" data-uid="lnk44" id="link_dom_db"><path d="M659.46,731.28 C647.37,774.12 631.7898,829.3056 617.8498,878.6956" fill="none" id="dom-to-db" style="stroke:#666666;stroke-width:1;"/><polygon fill="#666666" points="616.22,884.47,622.5143,876.8949,617.5782,879.658,614.8151,874.7219,616.22,884.47" style="stroke:#666666;stroke-width:1;"/><text fill="#000000" font-family="sans-serif" font-size="13" lengthAdjust="spacing" textLength="26" x="636.5" y="824.4951">&#20889;&#20837;</text></g><!--link alv to db--><g class="link" data-entity-1="alv" data-entity-2="db" data-source-line="108" data-uid="lnk45" id="link_alv_db"><path d="M202.08,731.26 C211.83,754.45 226.48,780.03 247.5,796.5 C337.92,867.33 400.77,797.66 498.5,858 C510.18,865.21 516.8862,870.1387 526.9162,880.0687" fill="none" id="alv-to-db" style="stroke:#666666;stroke-width:1;"/><polygon fill="#666666" points="531.18,884.29,527.5985,875.1154,527.6268,880.7722,521.97,880.8006,531.18,884.29" style="stroke:#666666;stroke-width:1;"/></g><!--link prt to db--><g class="link" data-entity-1="prt" data-entity-2="db" data-source-line="109" data-uid="lnk46" id="link_prt_db"><path d="M327.03,731.17 C336.9,753.52 350.9,778.46 369.5,796.5 C415.09,840.72 448.14,819.29 498.5,858 C508.68,865.83 514.3633,870.6125 523.6233,880.1625" fill="none" id="prt-to-db" style="stroke:#666666;stroke-width:1;"/><polygon fill="#666666" points="527.8,884.47,524.4066,875.2242,524.3194,880.8804,518.6632,880.7932,527.8,884.47" style="stroke:#666666;stroke-width:1;"/></g><!--link fgr to db--><g class="link" data-entity-1="fgr" data-entity-2="db" data-source-line="110" data-uid="lnk47" id="link_fgr_db"><path d="M457.05,731.13 C467.54,751.68 479.84,775.32 491.5,796.5 C507.36,825.32 522.3106,851.2727 538.6806,879.0127" fill="none" id="fgr-to-db" style="stroke:#666666;stroke-width:1;"/><polygon fill="#666666" points="541.73,884.18,540.6008,874.3961,539.1889,879.8739,533.7111,878.4619,541.73,884.18" style="stroke:#666666;stroke-width:1;"/></g><!--link vul to db--><g class="link" data-entity-1="vul" data-entity-2="db" data-source-line="111" data-uid="lnk48" id="link_vul_db"><path d="M561.08,740.32 C566.87,782.33 573.7517,832.3161 580.0817,878.2961" fill="none" id="vul-to-db" style="stroke:#666666;stroke-width:1;"/><polygon fill="#666666" points="580.9,884.24,583.6352,874.7786,580.2181,879.2867,575.7099,875.8696,580.9,884.24" style="stroke:#666666;stroke-width:1;"/></g></g></svg>